# xmcd CD database file
#
# Track frame offsets:
#	150
#	30032
#	54152
#	72007
#	98822
#	125607
#	156574
#	179974
#	209793
#	235236
#	258321
#	283653
#	315226
#
# Disc length: 4727 seconds
#
# Revision: 0
# Processed by: cddbd v1.5.2PL0 Copyright (c) Steve Scherf et al.
# Submitted via: CDex 1.79
#
DISCID=b812750d
DTITLE=Jimmy Smith - Home Cookin'
DYEAR=1957
DGENRE=Jazz
TTITLE0=See See Rider
TTITLE1=Sugar Hill
TTITLE2=I git a woman
TTITLE3=Messin' around
TTITLE4=Gracie
TTITLE5=Come on baby
TTITLE6=Motorin' along
TTITLE7=Apostrope
TTITLE8=All the things you are
TTITLE9=The fight
TTITLE10=There will never be another you
TTITLE11=Buns a plenty
TTITLE12=Blue Moon
EXTD=YEAR: 1957
EXTT0=
EXTT1=
EXTT2=
EXTT3=
EXTT4=
EXTT5=
EXTT6=
EXTT7=
EXTT8=
EXTT9=
EXTT10=
EXTT11=
EXTT12=
PLAYORDER=
